<mxfile host="app.diagrams.net" modified="2024-01-22T01:59:01.717Z" agent="Mozilla/5.0 (Macintosh; Intel Mac OS X 10_15_7) AppleWebKit/537.36 (KHTML, like Gecko) Chrome/120.0.0.0 Safari/537.36" etag="O0YfoYYSVhnSge9_61u0" version="22.1.21" type="github">
  <diagram name="第 1 页" id="gA179gCyOk6ft_SE3ont">
    <mxGraphModel dx="1562" dy="802" grid="1" gridSize="10" guides="1" tooltips="1" connect="1" arrows="1" fold="1" page="1" pageScale="1" pageWidth="827" pageHeight="1169" math="0" shadow="0">
      <root>
        <mxCell id="0" />
        <mxCell id="1" parent="0" />
        <mxCell id="yLrrtSFyqAmVjXnTSgTU-9" value="" style="rounded=0;whiteSpace=wrap;html=1;" vertex="1" parent="1">
          <mxGeometry x="20" y="240" width="600" height="350" as="geometry" />
        </mxCell>
        <mxCell id="yLrrtSFyqAmVjXnTSgTU-4" value="" style="rounded=0;whiteSpace=wrap;html=1;" vertex="1" parent="1">
          <mxGeometry x="41" y="290" width="146" height="260" as="geometry" />
        </mxCell>
        <mxCell id="BW0K5wJkt2hXaEGBneyc-3" value="" style="edgeStyle=orthogonalEdgeStyle;rounded=0;orthogonalLoop=1;jettySize=auto;html=1;" parent="1" source="BW0K5wJkt2hXaEGBneyc-1" target="BW0K5wJkt2hXaEGBneyc-2" edge="1">
          <mxGeometry relative="1" as="geometry" />
        </mxCell>
        <mxCell id="BW0K5wJkt2hXaEGBneyc-1" value="fluentbit" style="rounded=0;whiteSpace=wrap;html=1;" parent="1" vertex="1">
          <mxGeometry x="54" y="440" width="120" height="60" as="geometry" />
        </mxCell>
        <mxCell id="BW0K5wJkt2hXaEGBneyc-5" value="" style="edgeStyle=orthogonalEdgeStyle;rounded=0;orthogonalLoop=1;jettySize=auto;html=1;" parent="1" source="BW0K5wJkt2hXaEGBneyc-2" target="BW0K5wJkt2hXaEGBneyc-4" edge="1">
          <mxGeometry relative="1" as="geometry" />
        </mxCell>
        <mxCell id="BW0K5wJkt2hXaEGBneyc-2" value="local-kafka" style="rounded=0;whiteSpace=wrap;html=1;" parent="1" vertex="1">
          <mxGeometry x="254" y="440" width="120" height="60" as="geometry" />
        </mxCell>
        <mxCell id="BW0K5wJkt2hXaEGBneyc-7" value="" style="edgeStyle=orthogonalEdgeStyle;rounded=0;orthogonalLoop=1;jettySize=auto;html=1;" parent="1" source="BW0K5wJkt2hXaEGBneyc-4" target="BW0K5wJkt2hXaEGBneyc-6" edge="1">
          <mxGeometry relative="1" as="geometry" />
        </mxCell>
        <mxCell id="BW0K5wJkt2hXaEGBneyc-4" value="kafkamirror" style="rounded=0;whiteSpace=wrap;html=1;" parent="1" vertex="1">
          <mxGeometry x="454" y="440" width="120" height="60" as="geometry" />
        </mxCell>
        <mxCell id="BW0K5wJkt2hXaEGBneyc-6" value="CLP kafka" style="rounded=0;whiteSpace=wrap;html=1;" parent="1" vertex="1">
          <mxGeometry x="880" y="440" width="120" height="60" as="geometry" />
        </mxCell>
        <mxCell id="yLrrtSFyqAmVjXnTSgTU-1" value="&lt;h1&gt;2.0&lt;/h1&gt;&lt;div&gt;&lt;div style=&quot;color: rgb(204, 204, 204); background-color: rgb(31, 31, 31); font-family: Menlo, Monaco, &amp;quot;Courier New&amp;quot;, monospace; line-height: 18px;&quot;&gt;topic &lt;span style=&quot;color: #d4d4d4;&quot;&gt;:=&lt;/span&gt; fmt.&lt;span style=&quot;color: #dcdcaa;&quot;&gt;Sprintf&lt;/span&gt;(&lt;span style=&quot;color: #ce9178;&quot;&gt;&quot;&lt;/span&gt;&lt;span style=&quot;color: #9cdcfe;&quot;&gt;%s%s%s&lt;/span&gt;&lt;span style=&quot;color: #ce9178;&quot;&gt;&quot;&lt;/span&gt;, topicPrefix, topicBase, customSuffix)&lt;/div&gt;&lt;/div&gt;" style="text;html=1;strokeColor=none;fillColor=none;spacing=5;spacingTop=-20;whiteSpace=wrap;overflow=hidden;rounded=0;" vertex="1" parent="1">
          <mxGeometry x="34" y="100" width="856" height="80" as="geometry" />
        </mxCell>
        <mxCell id="yLrrtSFyqAmVjXnTSgTU-2" value="&lt;h1&gt;1.0&amp;nbsp;&lt;/h1&gt;&lt;div&gt;topic&lt;span style=&quot;color: rgb(31, 35, 40); font-family: ui-monospace, SFMono-Regular, &amp;quot;SF Mono&amp;quot;, Menlo, Consolas, &amp;quot;Liberation Mono&amp;quot;, monospace; background-color: rgb(230, 255, 236);&quot;&gt; &lt;/span&gt;&lt;span style=&quot;box-sizing: border-box; color: var(--color-prettylights-syntax-constant); font-family: ui-monospace, SFMono-Regular, &amp;quot;SF Mono&amp;quot;, Menlo, Consolas, &amp;quot;Liberation Mono&amp;quot;, monospace; background-color: rgb(230, 255, 236);&quot; class=&quot;pl-c1&quot;&gt;=&lt;/span&gt;&lt;span style=&quot;color: rgb(31, 35, 40); font-family: ui-monospace, SFMono-Regular, &amp;quot;SF Mono&amp;quot;, Menlo, Consolas, &amp;quot;Liberation Mono&amp;quot;, monospace; background-color: rgb(230, 255, 236);&quot;&gt; &lt;/span&gt;&lt;span style=&quot;box-sizing: border-box; color: rgb(31, 35, 40); font-family: ui-monospace, SFMono-Regular, &amp;quot;SF Mono&amp;quot;, Menlo, Consolas, &amp;quot;Liberation Mono&amp;quot;, monospace; background-color: rgb(230, 255, 236);&quot; class=&quot;pl-s1&quot;&gt;fmt&lt;/span&gt;&lt;span style=&quot;color: rgb(31, 35, 40); font-family: ui-monospace, SFMono-Regular, &amp;quot;SF Mono&amp;quot;, Menlo, Consolas, &amp;quot;Liberation Mono&amp;quot;, monospace; background-color: rgb(230, 255, 236);&quot;&gt;.&lt;/span&gt;&lt;span style=&quot;box-sizing: border-box; color: var(--color-prettylights-syntax-entity); font-family: ui-monospace, SFMono-Regular, &amp;quot;SF Mono&amp;quot;, Menlo, Consolas, &amp;quot;Liberation Mono&amp;quot;, monospace; background-color: rgb(230, 255, 236);&quot; class=&quot;pl-en&quot;&gt;Sprintf&lt;/span&gt;&lt;span style=&quot;color: rgb(31, 35, 40); font-family: ui-monospace, SFMono-Regular, &amp;quot;SF Mono&amp;quot;, Menlo, Consolas, &amp;quot;Liberation Mono&amp;quot;, monospace; background-color: rgb(230, 255, 236);&quot;&gt;(&lt;/span&gt;&lt;span style=&quot;box-sizing: border-box; color: var(--color-prettylights-syntax-string); font-family: ui-monospace, SFMono-Regular, &amp;quot;SF Mono&amp;quot;, Menlo, Consolas, &amp;quot;Liberation Mono&amp;quot;, monospace; background-color: rgb(230, 255, 236);&quot; class=&quot;pl-s&quot;&gt;&quot;logs_%s_%s_%s&quot;&lt;/span&gt;&lt;span style=&quot;color: rgb(31, 35, 40); font-family: ui-monospace, SFMono-Regular, &amp;quot;SF Mono&amp;quot;, Menlo, Consolas, &amp;quot;Liberation Mono&amp;quot;, monospace; background-color: rgb(230, 255, 236);&quot;&gt;, &lt;/span&gt;&lt;span style=&quot;box-sizing: border-box; color: rgb(31, 35, 40); font-family: ui-monospace, SFMono-Regular, &amp;quot;SF Mono&amp;quot;, Menlo, Consolas, &amp;quot;Liberation Mono&amp;quot;, monospace; background-color: rgb(230, 255, 236);&quot; class=&quot;pl-s1&quot;&gt;configuration&lt;/span&gt;&lt;span style=&quot;color: rgb(31, 35, 40); font-family: ui-monospace, SFMono-Regular, &amp;quot;SF Mono&amp;quot;, Menlo, Consolas, &amp;quot;Liberation Mono&amp;quot;, monospace; background-color: rgb(230, 255, 236);&quot;&gt;.&lt;/span&gt;&lt;span style=&quot;box-sizing: border-box; color: var(--color-prettylights-syntax-constant); font-family: ui-monospace, SFMono-Regular, &amp;quot;SF Mono&amp;quot;, Menlo, Consolas, &amp;quot;Liberation Mono&amp;quot;, monospace; background-color: rgb(230, 255, 236);&quot; class=&quot;pl-c1&quot;&gt;TopicPrefix&lt;/span&gt;&lt;span style=&quot;color: rgb(31, 35, 40); font-family: ui-monospace, SFMono-Regular, &amp;quot;SF Mono&amp;quot;, Menlo, Consolas, &amp;quot;Liberation Mono&amp;quot;, monospace; background-color: rgb(230, 255, 236);&quot;&gt;, &lt;/span&gt;&lt;span style=&quot;box-sizing: border-box; color: rgb(31, 35, 40); font-family: ui-monospace, SFMono-Regular, &amp;quot;SF Mono&amp;quot;, Menlo, Consolas, &amp;quot;Liberation Mono&amp;quot;, monospace; background-color: rgb(230, 255, 236);&quot; class=&quot;pl-s1&quot;&gt;configuration&lt;/span&gt;&lt;span style=&quot;color: rgb(31, 35, 40); font-family: ui-monospace, SFMono-Regular, &amp;quot;SF Mono&amp;quot;, Menlo, Consolas, &amp;quot;Liberation Mono&amp;quot;, monospace; background-color: rgb(230, 255, 236);&quot;&gt;.&lt;/span&gt;&lt;span style=&quot;box-sizing: border-box; color: var(--color-prettylights-syntax-constant); font-family: ui-monospace, SFMono-Regular, &amp;quot;SF Mono&amp;quot;, Menlo, Consolas, &amp;quot;Liberation Mono&amp;quot;, monospace; background-color: rgb(230, 255, 236);&quot; class=&quot;pl-c1&quot;&gt;ClusterName&lt;/span&gt;&lt;span style=&quot;color: rgb(31, 35, 40); font-family: ui-monospace, SFMono-Regular, &amp;quot;SF Mono&amp;quot;, Menlo, Consolas, &amp;quot;Liberation Mono&amp;quot;, monospace; background-color: rgb(230, 255, 236);&quot;&gt;, &lt;/span&gt;&lt;span style=&quot;box-sizing: border-box; color: rgb(31, 35, 40); font-family: ui-monospace, SFMono-Regular, &amp;quot;SF Mono&amp;quot;, Menlo, Consolas, &amp;quot;Liberation Mono&amp;quot;, monospace; background-color: rgb(230, 255, 236);&quot; class=&quot;pl-s1&quot;&gt;customTopicSuffix&lt;/span&gt;&lt;span style=&quot;color: rgb(31, 35, 40); font-family: ui-monospace, SFMono-Regular, &amp;quot;SF Mono&amp;quot;, Menlo, Consolas, &amp;quot;Liberation Mono&amp;quot;, monospace; background-color: rgb(230, 255, 236);&quot;&gt;)&lt;/span&gt;&lt;br&gt;&lt;/div&gt;" style="text;html=1;strokeColor=none;fillColor=none;spacing=5;spacingTop=-20;whiteSpace=wrap;overflow=hidden;rounded=0;" vertex="1" parent="1">
          <mxGeometry x="34" y="20" width="796" height="90" as="geometry" />
        </mxCell>
        <mxCell id="yLrrtSFyqAmVjXnTSgTU-5" value="K8s Node" style="text;html=1;strokeColor=none;fillColor=none;align=center;verticalAlign=middle;whiteSpace=wrap;rounded=0;" vertex="1" parent="1">
          <mxGeometry x="41" y="290" width="60" height="30" as="geometry" />
        </mxCell>
        <mxCell id="yLrrtSFyqAmVjXnTSgTU-6" value="Pod" style="ellipse;whiteSpace=wrap;html=1;aspect=fixed;" vertex="1" parent="1">
          <mxGeometry x="51" y="350" width="50" height="50" as="geometry" />
        </mxCell>
        <mxCell id="yLrrtSFyqAmVjXnTSgTU-7" value="Pod" style="ellipse;whiteSpace=wrap;html=1;aspect=fixed;" vertex="1" parent="1">
          <mxGeometry x="124" y="350" width="50" height="50" as="geometry" />
        </mxCell>
        <mxCell id="yLrrtSFyqAmVjXnTSgTU-8" style="edgeStyle=orthogonalEdgeStyle;rounded=0;orthogonalLoop=1;jettySize=auto;html=1;exitX=0.5;exitY=1;exitDx=0;exitDy=0;" edge="1" parent="1" source="yLrrtSFyqAmVjXnTSgTU-5" target="yLrrtSFyqAmVjXnTSgTU-5">
          <mxGeometry relative="1" as="geometry" />
        </mxCell>
        <mxCell id="yLrrtSFyqAmVjXnTSgTU-10" value="Webapp Cluster" style="text;html=1;strokeColor=none;fillColor=none;align=center;verticalAlign=middle;whiteSpace=wrap;rounded=0;" vertex="1" parent="1">
          <mxGeometry x="21" y="240" width="110" height="30" as="geometry" />
        </mxCell>
        <mxCell id="yLrrtSFyqAmVjXnTSgTU-13" value="" style="edgeStyle=orthogonalEdgeStyle;rounded=0;orthogonalLoop=1;jettySize=auto;html=1;" edge="1" parent="1" source="yLrrtSFyqAmVjXnTSgTU-11">
          <mxGeometry relative="1" as="geometry">
            <mxPoint x="220" y="470" as="targetPoint" />
            <Array as="points">
              <mxPoint x="220" y="490" />
              <mxPoint x="220" y="490" />
            </Array>
          </mxGeometry>
        </mxCell>
        <mxCell id="yLrrtSFyqAmVjXnTSgTU-11" value="Topic 1.0:&amp;nbsp;&amp;nbsp;logs_app_aiadmw-a-2_mw-aibridgeservice-aiats1&lt;br&gt;&lt;div style=&quot;text-align: left;&quot;&gt;&lt;span style=&quot;background-color: initial;&quot;&gt;Topic 2.0: logs2_webapp&lt;/span&gt;&lt;/div&gt;" style="rounded=1;whiteSpace=wrap;html=1;" vertex="1" parent="1">
          <mxGeometry x="54" y="640" width="350" height="60" as="geometry" />
        </mxCell>
        <mxCell id="yLrrtSFyqAmVjXnTSgTU-14" value="product" style="text;html=1;strokeColor=none;fillColor=none;align=center;verticalAlign=middle;whiteSpace=wrap;rounded=0;" vertex="1" parent="1">
          <mxGeometry x="187" y="440" width="60" height="30" as="geometry" />
        </mxCell>
        <mxCell id="yLrrtSFyqAmVjXnTSgTU-15" value="consumer" style="text;html=1;strokeColor=none;fillColor=none;align=center;verticalAlign=middle;whiteSpace=wrap;rounded=0;" vertex="1" parent="1">
          <mxGeometry x="383.5" y="450" width="60" height="30" as="geometry" />
        </mxCell>
        <mxCell id="yLrrtSFyqAmVjXnTSgTU-16" value="product" style="text;html=1;strokeColor=none;fillColor=none;align=center;verticalAlign=middle;whiteSpace=wrap;rounded=0;" vertex="1" parent="1">
          <mxGeometry x="670" y="440" width="60" height="30" as="geometry" />
        </mxCell>
        <mxCell id="yLrrtSFyqAmVjXnTSgTU-17" value="Topic :&amp;nbsp;ats1_logstash_meeting_spark_clp" style="rounded=1;whiteSpace=wrap;html=1;" vertex="1" parent="1">
          <mxGeometry x="580" y="640" width="350" height="60" as="geometry" />
        </mxCell>
      </root>
    </mxGraphModel>
  </diagram>
</mxfile>
